<?xml version="1.0" encoding="UTF-8"?>
<!DOCTYPE svg PUBLIC "-//W3C//DTD SVG 1.1//EN" "http://www.w3.org/Graphics/SVG/1.1/DTD/svg11.dtd">
<!-- Creator: CorelDRAW 2018 (64-Bit) -->
<svg xmlns="http://www.w3.org/2000/svg" xml:space="preserve" width="145.934mm" height="145.852mm" version="1.1" style="shape-rendering:geometricPrecision; text-rendering:geometricPrecision; image-rendering:optimizeQuality; fill-rule:evenodd; clip-rule:evenodd"
viewBox="0 0 14593.36 14585.16"
 xmlns:xlink="http://www.w3.org/1999/xlink">
 <defs>
  <style type="text/css">
   <![CDATA[
    .fil0 {fill:#FEFEFE}
   ]]>
  </style>
 </defs>
 <g id="Layer_x0020_1">
  <metadata id="CorelCorpID_0Corel-Layer"/>
  <g id="Layer_2">
   <g>
    <path class="fil0" d="M13551.56 5615.04c-49.22,-180.47 16.41,-463.48 77.93,-734.18 94.34,-406.05 200.98,-865.43 -16.41,-1234.57 -217.38,-377.34 -672.66,-516.8 -1074.61,-635.74 -262.5,-82.03 -537.3,-164.06 -664.45,-291.21 -127.15,-127.15 -213.28,-401.95 -291.21,-664.45 -123.05,-401.95 -258.4,-857.23 -635.74,-1074.61 -147.66,-86.13 -319.92,-127.15 -520.9,-127.15 -233.79,0 -479.88,57.42 -713.67,110.74 -213.28,49.22 -414.26,94.34 -586.52,94.34 -57.42,0 -106.64,-4.1 -151.76,-16.41 -168.16,-45.12 -373.24,-237.89 -570.12,-422.46 -307.62,-291.21 -660.35,-619.34 -1107.42,-619.34 -447.07,0 -795.7,328.13 -1107.42,619.34 -196.88,184.57 -401.95,377.34 -570.12,422.46 -41.02,12.3 -94.34,16.41 -151.76,16.41 -168.16,0 -373.24,-45.12 -586.52,-94.34 -237.89,-53.32 -479.88,-110.74 -713.67,-110.74 -205.08,0 -373.24,41.02 -520.9,127.15 -377.34,217.38 -516.8,672.66 -635.74,1074.61 -82.03,262.5 -164.06,537.3 -291.21,664.45 -127.15,127.15 -401.95,213.28 -664.45,291.21 -401.95,123.05 -857.23,258.4 -1074.61,635.74 -217.38,373.24 -110.74,832.62 -16.41,1234.57 61.52,270.7 127.15,553.71 77.93,734.18 -45.12,168.16 -237.89,373.24 -422.46,570.12 -291.21,307.62 -619.34,660.35 -619.34,1107.42 0,447.07 328.13,795.7 619.34,1107.42 184.57,196.88 377.34,401.95 422.46,570.12 49.22,180.47 -16.41,463.48 -77.93,734.18 -94.34,406.05 -200.98,865.43 16.41,1234.57 217.38,377.34 672.66,516.8 1074.61,635.74 262.5,82.03 537.3,164.06 664.45,291.21 127.15,127.15 213.28,401.95 291.21,664.45 123.05,401.95 258.4,857.23 635.74,1074.61 147.66,86.13 319.92,127.15 520.9,127.15 233.79,0 479.88,-57.42 713.67,-110.74 213.28,-49.22 414.26,-94.34 586.52,-94.34 57.42,0 106.64,4.1 151.76,16.41 168.16,45.12 373.24,237.89 570.12,422.46 307.62,291.21 660.35,619.34 1107.42,619.34 447.07,0 795.7,-328.13 1107.42,-619.34 196.88,-184.57 401.95,-377.34 570.12,-422.46 41.02,-12.3 94.34,-16.41 151.76,-16.41 168.16,0 373.24,45.12 586.52,94.34 237.89,53.32 479.88,110.74 713.67,110.74 205.08,0 373.24,-41.02 520.9,-127.15 377.34,-217.38 516.8,-672.66 635.74,-1074.61 82.03,-262.5 164.06,-537.3 291.21,-664.45 127.15,-127.15 401.95,-213.28 664.45,-291.21 401.95,-123.05 857.23,-258.4 1074.61,-635.74 217.38,-373.24 110.74,-832.62 16.41,-1234.57 -61.52,-270.7 -127.15,-553.71 -77.93,-734.18 45.12,-168.16 237.89,-373.24 422.46,-570.12 291.21,-307.62 619.34,-660.35 619.34,-1107.42 0,-447.07 -328.13,-795.7 -619.34,-1107.42 -184.57,-196.88 -377.34,-401.96 -422.46,-570.12zm-28.71 2362.5c-237.89,254.3 -479.88,512.7 -566.02,832.62 -90.23,332.23 -4.1,689.06 73.83,1033.59 69.73,307.62 143.55,627.54 49.22,791.6 -98.44,168.16 -414.26,262.5 -721.88,356.84 -336.33,102.54 -684.96,209.18 -922.85,447.07 -237.89,237.89 -344.53,586.52 -447.07,922.85 -94.34,307.62 -188.67,623.44 -356.84,721.88 -53.32,28.71 -123.05,45.12 -213.28,45.12 -164.06,0 -365.04,-45.12 -578.32,-94.34 -237.89,-53.32 -483.98,-110.74 -721.88,-110.74 -114.84,0 -213.28,12.3 -307.62,36.91 -319.92,86.13 -578.32,328.13 -832.62,566.02 -237.89,221.48 -483.98,451.17 -684.96,451.17 -200.98,0 -447.07,-229.69 -684.96,-451.17 -254.3,-237.89 -512.7,-479.88 -832.62,-566.02 -94.34,-24.61 -196.88,-36.91 -307.62,-36.91 -237.89,0 -483.98,57.42 -721.88,110.74 -213.28,49.22 -410.16,94.34 -578.32,94.34 -90.23,0 -159.96,-16.41 -213.28,-45.12 -168.16,-98.44 -262.5,-414.26 -356.84,-721.88 -102.54,-336.33 -209.18,-684.96 -447.07,-922.85 -237.89,-237.89 -586.52,-344.53 -922.85,-447.07 -307.62,-94.34 -623.44,-188.67 -721.88,-356.84 -94.34,-164.06 -20.51,-479.88 49.22,-791.6 77.93,-344.53 164.06,-701.37 73.83,-1033.59 -86.13,-319.92 -328.13,-578.32 -566.02,-832.62 -221.48,-237.89 -451.17,-483.98 -451.17,-684.96 0,-205.08 229.69,-447.07 451.17,-684.96 237.89,-254.3 479.88,-512.7 566.02,-832.62 90.23,-332.23 4.1,-689.06 -73.83,-1033.59 -69.73,-307.62 -143.55,-627.54 -49.22,-791.6 98.44,-168.16 414.26,-262.5 721.88,-356.84 336.33,-102.54 684.96,-209.18 922.85,-447.07 237.89,-237.89 344.53,-586.52 447.07,-922.85 94.34,-307.62 188.67,-623.44 356.84,-721.88 53.32,-28.71 123.05,-45.12 213.28,-45.12 164.06,0 365.04,45.12 578.32,94.34 237.89,53.32 483.98,110.74 721.88,110.74 114.84,0 213.28,-12.3 307.62,-36.91 319.92,-86.13 578.32,-328.13 832.62,-566.02 237.89,-221.48 483.98,-451.17 684.96,-451.17 200.98,0 447.07,229.69 684.96,451.17 254.3,237.89 512.7,479.88 832.62,566.02 94.34,24.61 196.88,36.91 307.62,36.91 237.89,0 483.98,-57.42 721.88,-110.74 213.28,-49.22 410.16,-94.34 578.32,-94.34 90.23,0 159.96,16.41 213.28,45.12 168.16,98.44 262.5,414.26 356.84,721.88 102.54,336.33 209.18,684.96 447.07,922.85 237.89,237.89 586.52,344.53 922.85,447.07 307.62,94.34 623.44,188.67 721.88,356.84 94.34,164.06 20.51,479.88 -49.22,791.6 -77.93,344.53 -164.06,701.37 -73.83,1033.59 86.13,319.92 328.13,578.32 566.02,832.62 221.48,237.89 451.17,483.98 451.17,684.96 4.11,205.08 -225.58,447.07 -451.17,684.96z"/>
    <path class="fil0" d="M4954.69 6414.85c808.01,0 1460.16,-656.25 1460.16,-1460.16 0,-808.01 -656.25,-1460.16 -1460.16,-1460.16 -808.01,0 -1460.16,656.25 -1460.16,1460.16 0,803.91 656.25,1460.16 1460.16,1460.16zm0 -2309.18c467.58,0 844.92,381.45 844.92,844.92 0,467.58 -381.45,844.92 -844.92,844.92 -463.47,0 -844.92,-381.45 -844.92,-844.92 0,-463.48 381.44,-844.92 844.92,-844.92z"/>
    <path class="fil0" d="M9638.67 8170.31c-808.01,0 -1460.16,656.25 -1460.16,1460.16 0,808.01 656.25,1460.16 1460.16,1460.16 808.01,0 1460.16,-656.25 1460.16,-1460.16 0,-803.91 -656.25,-1460.16 -1460.16,-1460.16zm0 2309.18c-467.58,0 -844.92,-381.45 -844.92,-844.92 0,-463.47 381.45,-844.92 844.92,-844.92 463.47,0 844.92,381.45 844.92,844.92 0,463.47 -381.44,844.92 -844.92,844.92z"/>
    <path class="fil0" d="M10700.98 3888.28c-118.95,-118.95 -315.82,-118.95 -434.77,0l-6373.83 6369.73c-118.95,118.95 -118.95,315.82 0,434.77 61.52,61.52 139.45,90.23 217.38,90.23 77.93,0 155.86,-28.71 217.38,-90.23l6373.84 -6365.63c118.94,-123.05 118.94,-315.82 0,-438.87z"/>
   </g>
  </g>
 </g>
</svg>
