<?xml version="1.0" encoding="UTF-8"?>
<!DOCTYPE svg PUBLIC "-//W3C//DTD SVG 1.1//EN" "http://www.w3.org/Graphics/SVG/1.1/DTD/svg11.dtd">
<!-- Creator: CorelDRAW 2018 (64-Bit) -->
<svg xmlns="http://www.w3.org/2000/svg" xml:space="preserve" width="129.719mm" height="130.528mm" version="1.1" style="shape-rendering:geometricPrecision; text-rendering:geometricPrecision; image-rendering:optimizeQuality; fill-rule:evenodd; clip-rule:evenodd"
viewBox="0 0 14254.63 14343.52"
 xmlns:xlink="http://www.w3.org/1999/xlink">
 <defs>
  <style type="text/css">
   <![CDATA[
    .fil0 {fill:#FEFEFE}
   ]]>
  </style>
 </defs>
 <g id="Layer_x0020_1">
  <metadata id="CorelCorpID_0Corel-Layer"/>
  <path class="fil0" d="M14254.29 6325.44c0,-1336.41 -1247.17,-1870.77 -1959.98,-1870.77l-1960 -0.34c356.24,-890.93 623.58,-1959.98 445.47,-2761.69 -445.47,-1603.76 -1781.87,-1692.65 -2227.33,-1692.65l-88.9 0c-356.24,0 -534.7,178.12 -712.81,445.47l-890.93 2494.35 -2405.46 2405.46 -4454.34 0 0 8018.08 4454.68 0 0 -890.93c178.12,0 623.58,267.35 1069.05,534.7 1069.06,534.7 2583.58,1336.4 4008.88,1336.4 2138.1,0 2850.92,-267.35 3385.28,-1158.28 267.35,-534.7 267.35,-979.83 267.35,-1247.18 178.12,-178.12 445.47,-445.47 534.7,-890.93 89.23,-445.47 89.23,-712.81 0,-979.82 178.12,-267.35 356.24,-623.6 445.47,-1158.29 0,-445.47 -89.23,-801.7 -178.12,-1069.05 89.23,-356.24 267.35,-801.7 267.35,-1514.52l-0.34 0zm-12026.95 5701.52c-534.7,0 -890.94,-356.25 -890.94,-890.94 0,-534.7 356.25,-890.93 890.94,-890.93 534.7,0 890.93,356.24 890.93,890.93 0,534.7 -356.24,890.94 -890.93,890.94zm10868.67 -3919.98c0,0 178.12,178.12 178.12,623.58 0,534.7 -356.24,801.7 -356.24,801.7l-267.35 267.35 178.12 267.35c0,0 178.12,267.35 0,623.58 -89.23,356.24 -445.47,623.58 -445.47,623.58l-267.35 267.35 178.12 356.25c0,0 178.12,356.24 -89.23,801.7 -178.12,356.24 -356.24,623.58 -2583.58,623.58 -1247.17,0 -2672.8,-712.81 -3652.63,-1247.17 -712.81,-356.24 -1158.28,-534.7 -1514.52,-534.7l0 0 0 -5345.28 89.56 0.34c178.12,0 356.25,-89.23 534.7,-178.12l2494.35 -2494.35c89.23,-89.23 89.23,-178.12 178.12,-267.35l890.94 -2405.46c445.47,0 1069.05,178.12 1247.17,979.83 89.23,534.7 -89.23,1425.29 -534.7,2494.35 -89.23,267.35 -89.23,445.47 89.23,712.81 89.23,178.12 356.24,267.35 623.58,267.35l2227.34 0c89.22,0 1069.05,178.12 1069.05,979.82 0,712.81 -267.35,1069.05 -267.35,1069.05l-267.35 356.25 267.35 356.24 0 0.34z"/>
 </g>
</svg>
