<?xml version="1.0" encoding="UTF-8"?>
<!DOCTYPE svg PUBLIC "-//W3C//DTD SVG 1.1//EN" "http://www.w3.org/Graphics/SVG/1.1/DTD/svg11.dtd">
<!-- Creator: CorelDRAW 2018 (64-Bit) -->
<svg xmlns="http://www.w3.org/2000/svg" xml:space="preserve" width="47.9635mm" height="11.7652mm" version="1.1" style="shape-rendering:geometricPrecision; text-rendering:geometricPrecision; image-rendering:optimizeQuality; fill-rule:evenodd; clip-rule:evenodd"
viewBox="0 0 1568.07 384.64"
 xmlns:xlink="http://www.w3.org/1999/xlink">
 <defs>
  <style type="text/css">
   <![CDATA[
    .str0 {stroke:#1A1A1A;stroke-width:2.49;stroke-miterlimit:22.9256}
    .fil0 {fill:#1A1A1A}
    .fil1 {fill:#1A1A1A;fill-rule:nonzero}
   ]]>
  </style>
 </defs>
 <g id="Layer_x0020_1">
  <metadata id="CorelCorpID_0Corel-Layer"/>
  <path class="fil0 str0" d="M1.25 1.25l128.68 0 0 43.28 -10.33 0 -35.63 0 -36.76 0 0 36.76 0 222.04 0 36.76 36.76 0 34.54 0 11.42 0 0 43.3 -128.68 0 0 -382.15zm248.61 0l128.68 0 0 43.28 -64.32 0 -32.18 0 -32.18 0 0 -43.28zm128.68 80.05l0 222.04 -65.4 0 -33.46 0 -29.82 0 0 -44.89 -119.93 0 0 44.89 -11.42 0 -34.54 0 0 -222.04 35.63 0 10.33 0 0 48.47 119.93 0 0 -48.47 32.18 0 32.18 0 64.32 0zm0 258.81l0 43.3 -128.68 0 0 -43.3 29.82 0 33.46 0 65.4 0z"/>
  <path class="fil1 str0" d="M514.39 298.75l0 -97.38 -35.25 0 0 97.38 -28.68 0 0 -214.49 28.68 0 0 91.12 35.25 0 0 -91.12 28.68 0 0 214.49 -28.68 0zm55.56 0l0 -214.49 28.68 0 0 214.49 -28.68 0zm115.01 -110.83l0 -103.66 28.68 0 0 214.49 -28.68 0 0 -42.72 -30.77 -97.68 0 140.4 -28.68 0 0 -214.49 28.68 0 30.77 103.66zm46.6 -25.09l13.74 -38.54 -14.04 0 0 -40.33 20.02 0c7.96,0 11.95,3.98 11.95,11.95l0 28.38 -14.34 38.54 -17.33 0zm109.04 -20.91l0 -18.82c0,-8.56 -4.18,-12.85 -12.55,-12.85l-4.48 0c-8.17,0 -12.25,4.28 -12.25,12.85l0 35.55c0,3.99 0.8,6.67 2.39,8.07 1.59,1.39 4.18,3.19 7.76,5.38l27.19 14.64c5.97,3.38 10.21,6.02 12.69,7.91 2.49,1.89 4.43,4.18 5.82,6.87 1.4,2.69 2.09,7.82 2.09,15.39l0 45.7c0,24.1 -11.55,36.15 -34.65,36.15l-17.62 0c-22.9,0 -34.35,-13.14 -34.35,-39.43l0 -10.75 28.67 0 0 11.65c0,8.37 4.28,12.55 12.85,12.55l5.08 0c7.57,0 11.35,-4.18 11.35,-12.55l0 -36.44c0,-3.98 -0.8,-6.67 -2.39,-8.07 -1.59,-1.4 -4.18,-3.19 -7.76,-5.38l-27.19 -15.23c-5.97,-3.19 -10.3,-5.88 -12.99,-8.07 -2.69,-2.19 -4.63,-5.03 -5.83,-8.51 -1.19,-3.49 -1.79,-8.02 -1.79,-13.59l0 -43.91c0,-24.5 11.45,-36.74 34.35,-36.74l17.92 0c22.9,0 34.35,12.25 34.35,36.74l0 20.91 -28.67 0z"/>
  <path class="fil1 str0" d="M990.6 249.37l0 13.74c0,24.29 -11.45,36.44 -34.35,36.44l-18.52 0c-22.9,0 -34.35,-12.15 -34.35,-36.44l0 -141.59c0,-24.3 11.45,-36.44 34.35,-36.44l18.52 0c22.9,0 34.35,12.15 34.35,36.44l0 24.2 -28.67 0 0 -22.11c0,-8.36 -4.28,-12.54 -12.85,-12.54l-5.68 0c-7.57,0 -11.35,4.18 -11.35,12.54l0 137.41c0,8.37 3.79,12.55 11.35,12.55l7.17 0c7.57,0 11.35,-4.18 11.35,-12.55l0 -11.65 28.67 0zm115.6 -164.3l0 173.85c0,27.08 -11.55,40.62 -34.65,40.62l-24.2 0c-22.9,0 -34.35,-13.64 -34.35,-40.93l0 -173.55 28.67 0 0 174.45c0,9.36 4.18,14.04 12.55,14.04l11.65 0c7.77,0 11.65,-4.68 11.65,-14.04l0 -174.45 28.67 0zm81.85 57.65l0 -18.82c0,-8.56 -4.18,-12.85 -12.55,-12.85l-4.48 0c-8.17,0 -12.25,4.28 -12.25,12.85l0 35.55c0,3.98 0.79,6.67 2.39,8.07 1.59,1.39 4.18,3.19 7.76,5.38l27.18 14.64c5.97,3.38 10.21,6.03 12.69,7.91 2.49,1.89 4.43,4.18 5.83,6.87 1.39,2.69 2.09,7.82 2.09,15.38l0 45.7c0,24.1 -11.55,36.15 -34.65,36.15l-17.62 0c-22.9,0 -34.35,-13.14 -34.35,-39.43l0 -10.75 28.68 0 0 11.65c0,8.37 4.28,12.55 12.85,12.55l5.08 0c7.57,0 11.35,-4.18 11.35,-12.55l0 -36.44c0,-3.98 -0.8,-6.67 -2.39,-8.07 -1.59,-1.4 -4.18,-3.19 -7.77,-5.38l-27.18 -15.23c-5.98,-3.18 -10.31,-5.87 -13,-8.07 -2.69,-2.19 -4.63,-5.03 -5.83,-8.51 -1.19,-3.49 -1.79,-8.02 -1.79,-13.59l0 -43.91c0,-24.49 11.45,-36.74 34.35,-36.74l17.92 0c22.9,0 34.35,12.25 34.35,36.74l0 20.91 -28.68 0zm98.28 -31.66l0 188.49 -28.67 0 0 -188.49 -27.48 0 0 -25.99 83.64 0 0 25.99 -27.48 0zm77.07 188.49c-23.1,0 -34.65,-12.15 -34.65,-36.44l0 -141.3c0,-24.49 11.45,-36.74 34.35,-36.74l27.48 0c22.9,0 34.35,12.25 34.35,36.74l0 141.3c0,24.29 -11.55,36.44 -34.65,36.44l-26.88 0zm6.87 -25.99l14.64 0c7.57,0 11.35,-4.18 11.35,-12.55l0 -137.41c0,-8.36 -4.28,-12.54 -12.85,-12.54l-13.44 0c-8.36,0 -12.55,4.18 -12.55,12.54l0 137.41c0,8.37 4.28,12.55 12.85,12.55zm138.31 -62.43l26.59 -126.06 31.66 0 0 214.48 -28.67 0 2.98 -140.4 -21.51 101.56 -22.11 0 -21.51 -101.56 2.98 140.4 -28.67 0 0 -214.48 31.66 0 26.59 126.06z"/>
 </g>
</svg>
