<?xml version="1.0" encoding="UTF-8"?>
<!DOCTYPE svg PUBLIC "-//W3C//DTD SVG 1.1//EN" "http://www.w3.org/Graphics/SVG/1.1/DTD/svg11.dtd">
<!-- Creator: CorelDRAW 2018 (64-Bit) -->
<svg xmlns="http://www.w3.org/2000/svg" xml:space="preserve" width="9.9907mm" height="10.2448mm" version="1.1" style="shape-rendering:geometricPrecision; text-rendering:geometricPrecision; image-rendering:optimizeQuality; fill-rule:evenodd; clip-rule:evenodd"
viewBox="0 0 246.83 253.11"
 xmlns:xlink="http://www.w3.org/1999/xlink">
 <defs>
  <style type="text/css">
   <![CDATA[
    .fil0 {fill:black}
   ]]>
  </style>
 </defs>
 <g id="Layer_x0020_1">
  <metadata id="CorelCorpID_0Corel-Layer"/>
  <path class="fil0" d="M81.99 47.37l27.19 0 0 125.51 -27.19 0 0 -49.16 -37.65 0 0 49.16 -26.67 0 0 -125.51 26.67 0 0 49.16 37.65 0 0 -49.16zm118.42 0l27.19 0 0 125.51 -27.19 0 -35.56 -49.16 0 49.16 -27.19 0 0 -125.51 27.19 0 35.56 49.16 0 -49.16zm-91.22 -20.18l0 -27.19 28.47 0 0 27.19 -28.47 0zm-66.02 196.49l0 3.57c0,6.31 -2.97,9.47 -8.92,9.47l-4.81 0c-5.95,0 -8.92,-3.16 -8.92,-9.47l0 -36.78c0,-6.31 2.97,-9.47 8.92,-9.47l4.81 0c5.95,0 8.92,3.16 8.92,9.47l0 6.28 -7.45 0 0 -5.74c0,-2.17 -1.11,-3.26 -3.34,-3.26l-1.47 0c-1.96,0 -2.95,1.08 -2.95,3.26l0 35.69c0,2.17 0.98,3.26 2.95,3.26l1.86 0c1.96,0 2.95,-1.09 2.95,-3.26l0 -3.03 7.45 0zm36.37 -42.67l0 45.15c0,7.03 -3,10.55 -9,10.55l-6.29 0c-5.95,0 -8.92,-3.54 -8.92,-10.63l0 -45.08 7.45 0 0 45.31c0,2.43 1.08,3.65 3.26,3.65l3.02 0c2.02,0 3.03,-1.22 3.03,-3.65l0 -45.31 7.45 0zm27.6 14.97l0 -4.89c0,-2.22 -1.08,-3.34 -3.26,-3.34l-1.16 0c-2.12,0 -3.18,1.11 -3.18,3.34l0 9.23c0,1.04 0.21,1.73 0.62,2.1 0.41,0.36 1.09,0.83 2.02,1.4l7.06 3.8c1.55,0.88 2.65,1.56 3.3,2.06 0.64,0.49 1.15,1.09 1.51,1.78 0.36,0.7 0.54,2.03 0.54,4l0 11.87c0,6.26 -3,9.39 -9,9.39l-4.58 0c-5.95,0 -8.92,-3.41 -8.92,-10.24l0 -2.79 7.45 0 0 3.03c0,2.17 1.11,3.26 3.34,3.26l1.32 0c1.97,0 2.95,-1.09 2.95,-3.26l0 -9.47c0,-1.04 -0.21,-1.73 -0.62,-2.1 -0.41,-0.36 -1.09,-0.83 -2.02,-1.4l-7.06 -3.96c-1.55,-0.83 -2.68,-1.52 -3.37,-2.1 -0.7,-0.57 -1.2,-1.3 -1.51,-2.21 -0.31,-0.9 -0.47,-2.08 -0.47,-3.53l0 -11.4c0,-6.36 2.97,-9.54 8.92,-9.54l4.66 0c5.95,0 8.92,3.18 8.92,9.54l0 5.43 -7.45 0zm31.87 -8.22l0 48.96 -7.45 0 0 -48.96 -7.14 0 0 -6.75 21.72 0 0 6.75 -7.14 0zm26.36 48.96c-6,0 -9,-3.16 -9,-9.47l0 -36.7c0,-6.36 2.97,-9.54 8.92,-9.54l7.14 0c5.95,0 8.92,3.18 8.92,9.54l0 36.7c0,6.31 -3,9.47 -9,9.47l-6.98 0zm1.78 -6.75l3.8 0c1.96,0 2.95,-1.09 2.95,-3.26l0 -35.69c0,-2.17 -1.11,-3.26 -3.34,-3.26l-3.49 0c-2.17,0 -3.26,1.08 -3.26,3.26l0 35.69c0,2.17 1.11,3.26 3.34,3.26zm42.27 -16.21l6.91 -32.74 8.22 0 0 55.71 -7.45 0 0.78 -36.46 -5.59 26.38 -5.74 0 -5.59 -26.38 0.78 36.46 -7.45 0 0 -55.71 8.22 0 6.91 32.74zm-21.56 -195.97l0 -8.37 50.2 0 0 8.37 -50.2 0zm-179.49 235.33l0 -8.37 230.1 0 0 8.37 -230.1 0zm-8.37 -243.7l8.37 0 0 243.7 -8.37 0 0 -243.7zm238.47 0l8.37 0 0 243.7 -8.37 0 0 -243.7zm-229.69 8.37l0 -8.37 57.32 0 0 8.37 -57.32 0z"/>
 </g>
</svg>
