<?xml version="1.0" encoding="UTF-8"?>
<!DOCTYPE svg PUBLIC "-//W3C//DTD SVG 1.1//EN" "http://www.w3.org/Graphics/SVG/1.1/DTD/svg11.dtd">
<!-- Creator: CorelDRAW 2018 (64-Bit) -->
<svg xmlns="http://www.w3.org/2000/svg" xml:space="preserve" width="11.6168mm" height="11.7652mm" version="1.1" style="shape-rendering:geometricPrecision; text-rendering:geometricPrecision; image-rendering:optimizeQuality; fill-rule:evenodd; clip-rule:evenodd"
viewBox="0 0 53.06 53.74"
 xmlns:xlink="http://www.w3.org/1999/xlink">
 <defs>
  <style type="text/css">
   <![CDATA[
    .str0 {stroke:white;stroke-width:0.35;stroke-miterlimit:22.9256}
    .fil0 {fill:white}
   ]]>
  </style>
 </defs>
 <g id="Layer_x0020_1">
  <metadata id="CorelCorpID_0Corel-Layer"/>
  <path class="fil0 str0" d="M0.17 0.17l17.98 0 0 6.05 -1.44 0 -4.98 0 -5.14 0 0 5.14 0 31.02 0 5.14 5.14 0 4.83 0 1.6 0 0 6.05 -17.98 0 0 -53.39zm34.74 0l17.98 0 0 6.05 -8.99 0 -4.5 0 -4.5 0 0 -6.05zm17.98 11.18l0 31.02 -9.14 0 -4.67 0 -4.17 0 0 -6.27 -16.76 0 0 6.27 -1.6 0 -4.83 0 0 -31.02 4.98 0 1.44 0 0 6.77 16.76 0 0 -6.77 4.5 0 4.5 0 8.99 0zm0 36.16l0 6.05 -17.98 0 0 -6.05 4.17 0 4.67 0 9.14 0z"/>
 </g>
</svg>
