<?xml version="1.0" encoding="UTF-8"?>
<!DOCTYPE svg PUBLIC "-//W3C//DTD SVG 1.1//EN" "http://www.w3.org/Graphics/SVG/1.1/DTD/svg11.dtd">
<!-- Creator: CorelDRAW 2018 (64-Bit) -->
<svg xmlns="http://www.w3.org/2000/svg" xml:space="preserve" width="210mm" height="162.786mm" version="1.1" style="shape-rendering:geometricPrecision; text-rendering:geometricPrecision; image-rendering:optimizeQuality; fill-rule:evenodd; clip-rule:evenodd"
viewBox="0 0 21000 16278.56"
 xmlns:xlink="http://www.w3.org/1999/xlink">
 <defs>
  <style type="text/css">
   <![CDATA[
    .fil0 {fill:#FEFEFE}
   ]]>
  </style>
 </defs>
 <g id="Layer_x0020_1">
  <metadata id="CorelCorpID_0Corel-Layer"/>
  <g id="_2663210074064">
   <path class="fil0" d="M20715.86 3250.13l-8604.95 -3222.26c-98.66,-37.16 -208.03,-37.16 -306.73,0l-8605.19 3222.26c-0.6,0.21 -275.61,88.93 -284.1,409.76l0 5695.8c-1649.53,260.69 -2914.89,1691.99 -2914.89,3413.69 0,1905.99 1550.49,3456.43 3456.43,3456.43 1309.29,0 2450.87,-731.7 3037.33,-1807.63l5321.1 1836.47c11.83,4.33 139.93,51.56 285.17,0l8605.2 -2969.96c176.44,-60.9 294.77,-226.89 294.77,-413.57l0 -9211.19c-8.19,-321.86 -283.54,-409.59 -284.14,-409.8zm-8758.29 -2345.36l7357.29 2755.07 -7357.33 2754.86 -7357.5 -2754.86 7357.54 -2755.07zm-8501.14 14446.07c-1423.37,0 -2581.41,-1158.04 -2581.41,-2581.41 0,-1423.37 1158.04,-2581.41 2581.41,-2581.41 1423.59,0 2581.63,1158.09 2581.63,2581.41 0,1423.37 -1158.05,2581.41 -2581.63,2581.41zm333.47 -6021.47l0 -5038.46 7729.97 2894.36 0 8042.01 -4708.8 -1625.23c66.26,-266.87 102.04,-545.61 102.04,-832.67 -0.04,-1793.4 -1373.18,-3271.71 -3123.21,-3440.01zm16335.09 3229.84l-7729.93 2668.07 0 -8042.01 7729.93 -2894.36 0 8268.3z"/>
   <path class="fil0" d="M5349.34 11346.7c-176.27,-164.96 -453.73,-156.39 -618.43,20.31l-1752.81 1871.53 -801.3 -826.29c-168.13,-173.06 -444.99,-177.73 -618.69,-9.43 -173.44,168.13 -177.73,445.2 -9.34,618.69l1120.89 1155.94c245.23,246.6 549.04,100.89 633.34,-5.57l2066.61 -2206.71c165.18,-176.53 155.96,-453.34 -20.27,-618.47z"/>
  </g>
 </g>
</svg>
