<?xml version="1.0" encoding="UTF-8"?>
<!DOCTYPE svg PUBLIC "-//W3C//DTD SVG 1.1//EN" "http://www.w3.org/Graphics/SVG/1.1/DTD/svg11.dtd">
<!-- Creator: CorelDRAW 2018 (64-Bit) -->
<svg xmlns="http://www.w3.org/2000/svg" xml:space="preserve" width="137.857mm" height="138.031mm" version="1.1" style="shape-rendering:geometricPrecision; text-rendering:geometricPrecision; image-rendering:optimizeQuality; fill-rule:evenodd; clip-rule:evenodd"
viewBox="0 0 13782 13799.4"
 xmlns:xlink="http://www.w3.org/1999/xlink">
 <defs>
  <style type="text/css">
   <![CDATA[
    .fil0 {fill:#FEFEFE}
   ]]>
  </style>
 </defs>
 <g id="Layer_x0020_1">
  <metadata id="CorelCorpID_0Corel-Layer"/>
  <g id="Layer_2">
   <g>
    <path class="fil0" d="M6896.96 13799.4c1841.1,0 3571.49,-717.58 4875.44,-2021.52 1209.63,-1209.63 1923.11,-2817.01 2009.23,-4526.91 8.2,-168.11 -123.02,-315.73 -291.13,-323.93 -168.11,-8.2 -315.73,123.02 -323.93,291.13 -77.91,1554.07 -729.88,3017.93 -1832.9,4120.95 -1185.03,1185.03 -2763.7,1841.1 -4440.79,1841.1 -1677.09,0 -3255.76,-651.97 -4440.79,-1841.1 -2447.97,-2447.97 -2447.97,-6433.61 0,-8881.58 2087.14,-2087.14 5334.69,-2435.67 7803.16,-865.2l-692.97 848.79 1988.72 -200.93 -200.93 -1988.72 -701.18 861.1c-2718.6,-1771.4 -6322.9,-1398.25 -8631.45,910.3 -2689.9,2689.9 -2689.9,7060.98 0,9750.88 1308.04,1308.04 3038.43,2025.62 4879.53,2025.62z"/>
    <path class="fil0" d="M10148.62 5483.68c0,-4.1 0,-8.2 -4.1,-8.2 0,-8.2 -4.1,-12.3 -4.1,-20.5 0,-4.1 -4.1,-12.3 -4.1,-16.41 0,-4.1 -4.1,-8.2 -4.1,-12.3 -8.2,-20.5 -16.41,-36.9 -28.7,-53.31 0,0 0,0 0,0l-1303.95 -1914.91c-57.4,-86.11 -151.72,-135.31 -254.23,-135.31l-3304.97 0c-102.51,0 -196.83,49.21 -254.23,135.31l-1303.95 1910.81c0,0 0,0 0,0 -12.3,16.41 -20.5,36.9 -28.7,53.31 0,4.1 -4.1,8.2 -4.1,12.3 -4.1,4.1 -4.1,12.3 -4.1,16.41 0,8.2 -4.1,12.3 -4.1,20.5 0,4.1 0,8.2 -4.1,8.2 -4.1,20.5 -8.2,41.01 -8.2,61.5 0,0 0,0 0,0l0 4629.41c0,168.11 139.41,307.54 307.54,307.54l5908.75 0c168.11,0 307.54,-139.41 307.54,-307.54l-0.01 -4625.31c0,0 0,0 0,0 0,-24.6 0,-45.1 -4.1,-61.5zm-4744.23 -1545.87l2976.93 0 881.6 1295.74 -4744.23 0 885.69 -1295.74zm4133.26 5929.26l-5289.59 0 0 -4014.34 5293.69 0 0 4014.34 -4.1 0z"/>
   </g>
  </g>
 </g>
</svg>
