<?xml version="1.0" encoding="UTF-8"?>
<!DOCTYPE svg PUBLIC "-//W3C//DTD SVG 1.1//EN" "http://www.w3.org/Graphics/SVG/1.1/DTD/svg11.dtd">
<!-- Creator: CorelDRAW 2018 (64-Bit) -->
<svg xmlns="http://www.w3.org/2000/svg" xml:space="preserve" width="210mm" height="297mm" version="1.1" style="shape-rendering:geometricPrecision; text-rendering:geometricPrecision; image-rendering:optimizeQuality; fill-rule:evenodd; clip-rule:evenodd"
viewBox="0 0 21000 29700"
 xmlns:xlink="http://www.w3.org/1999/xlink">
 <defs>
  <style type="text/css">
   <![CDATA[
    .fil0 {fill:#FEFEFE}
   ]]>
  </style>
 </defs>
 <g id="Layer_x0020_1">
  <metadata id="CorelCorpID_0Corel-Layer"/>
  <path class="fil0" d="M10500 4350c-5789.61,0 -10500,4710.39 -10500,10500 0,5789.61 4710.39,10500 10500,10500 5789.61,0 10500,-4710.39 10500,-10500 0,-5789.61 -4710.39,-10500 -10500,-10500zm9239.53 13198.07l-4499.19 0c102.51,-858.21 157.16,-1761.86 157.16,-2698.07 0,-936.09 -54.43,-1839.9 -156.9,-2698.07l4498.93 0c250.5,856.46 385.46,1761.73 385.46,2698.07 0,936.34 -134.96,1841.61 -385.46,2698.07zm-9239.1 6926.92c-0.13,0 -0.3,0 -0.43,0 -0.13,0 -0.3,0 -0.43,0 -1656.09,-0.43 -3116.7,-2543.36 -3723.56,-6051.9l7447.55 0c-606.86,3508.54 -2067.39,6051.47 -3723.13,6051.9zm-3855.26 -6926.92c-109.03,-859.93 -168.13,-1765.93 -168.13,-2698.07 0,-932.14 59.1,-1838.14 168.13,-2698.07l7709.19 0c109.03,859.93 168.13,1765.97 168.13,2698.07 0,932.1 -59.1,1838.14 -168.13,2698.07l-7709.19 0zm3854.53 -12323.06c0.09,0 0.17,0 0.3,0 0.09,0 0.17,0 0.26,0 1655.83,0.3 3116.4,2543.31 3723.3,6051.94l-7447.55 0.01c606.9,-3508.67 2067.56,-6051.69 3723.69,-6051.95zm8937.26 6051.9l-4320.13 0c-414.39,-2530.16 -1260.99,-4587.04 -2359.54,-5783.91 3045.68,734.74 5531.14,2921.49 6679.67,5783.91zm-11193.52 -5784.08c-1098.99,1196.7 -1946.01,3253.59 -2360.57,5784.13l-4319.83 0c1148.62,-2862.69 3634.42,-5049.56 6680.4,-5784.13zm-6982.97 6659.1l4498.67 0c-102.56,858.17 -157.07,1761.94 -157.07,2698.07 0,936.17 54.69,1839.86 157.2,2698.07l-4498.8 0c-250.5,-856.46 -385.46,-1761.73 -385.46,-2698.07 0,-936.34 134.96,-1841.61 385.46,-2698.07zm302.57 6271.16l4319.83 0c414.47,2530.11 1261.16,4587.17 2359.89,5783.96 -3045.69,-734.79 -5531.15,-2921.54 -6679.72,-5783.96zm11194.03 5783.95c1098.64,-1196.79 1945.2,-3253.84 2359.63,-5783.96l4320.21 0.01c-1148.52,2862.47 -3634.07,5049.25 -6679.84,5783.95z"/>
  <g id="_2663193072128">
  </g>
  <g id="_2663193072192">
  </g>
  <g id="_2663193070432">
  </g>
  <g id="_2663193071840">
  </g>
  <g id="_2663193071296">
  </g>
  <g id="_2663193070848">
  </g>
  <g id="_2663193068064">
  </g>
  <g id="_2663193068832">
  </g>
  <g id="_2663193069248">
  </g>
  <g id="_2663193069184">
  </g>
  <g id="_2663193066304">
  </g>
  <g id="_2663193067616">
  </g>
  <g id="_2663193066784">
  </g>
  <g id="_2663193066112">
  </g>
  <g id="_2663193065376">
  </g>
 </g>
</svg>
