<?xml version="1.0" encoding="UTF-8"?>
<!DOCTYPE svg PUBLIC "-//W3C//DTD SVG 1.1//EN" "http://www.w3.org/Graphics/SVG/1.1/DTD/svg11.dtd">
<!-- Creator: CorelDRAW 2018 (64-Bit) -->
<svg xmlns="http://www.w3.org/2000/svg" xml:space="preserve" width="134.887mm" height="134.887mm" version="1.1" style="shape-rendering:geometricPrecision; text-rendering:geometricPrecision; image-rendering:optimizeQuality; fill-rule:evenodd; clip-rule:evenodd"
viewBox="0 0 8696.41 8696.41"
 xmlns:xlink="http://www.w3.org/1999/xlink">
 <defs>
  <style type="text/css">
   <![CDATA[
    .str0 {stroke:#FEFEFE;stroke-width:12.89;stroke-miterlimit:22.9256}
    .fil0 {fill:#FEFEFE}
   ]]>
  </style>
 </defs>
 <g id="Layer_x0020_1">
  <metadata id="CorelCorpID_0Corel-Layer"/>
  <path class="fil0 str0" d="M4348.2 6.45c-2394.01,0 -4341.76,1947.75 -4341.76,4341.76 0,2394.01 1947.75,4341.76 4341.76,4341.76 2394.01,0 4341.76,-1947.75 4341.76,-4341.76 0,-2394.01 -1947.75,-4341.76 -4341.76,-4341.76zm3820.55 5457.41l-1860.42 0c42.38,-354.87 64.98,-728.53 64.98,-1115.66 0,-387.08 -22.51,-760.8 -64.88,-1115.66l1860.31 0c103.58,354.15 159.39,728.48 159.39,1115.66 0,387.18 -55.81,761.5 -159.39,1115.66zm-3820.37 2864.28c-0.06,0 -0.13,0 -0.18,0 -0.05,0 -0.12,0 -0.18,0 -684.79,-0.18 -1288.76,-1051.68 -1539.69,-2502.47l3079.57 0c-250.94,1450.79 -854.87,2502.29 -1539.51,2502.47zm-1594.15 -2864.28c-45.09,-355.58 -69.52,-730.22 -69.52,-1115.66 0,-385.44 24.43,-760.07 69.52,-1115.66l3187.75 0c45.09,355.58 69.52,730.23 69.52,1115.66 0,385.43 -24.43,760.07 -69.52,1115.66l-3187.75 0zm1593.85 -5095.59c0.04,0 0.07,0 0.12,0 0.04,0 0.07,0 0.11,0 684.69,0.12 1288.63,1051.66 1539.58,2502.48l-3079.57 0.01c250.96,-1450.84 854.94,-2502.38 1539.75,-2502.49zm3695.56 2502.47l-1786.38 0c-171.35,-1046.23 -521.42,-1896.75 -975.67,-2391.65 1259.39,303.82 2287.12,1208.04 2762.04,2391.65zm-4628.53 -2391.72c-454.43,494.84 -804.67,1345.36 -976.09,2391.74l-1786.25 0c474.95,-1183.72 1502.84,-2088 2762.35,-2391.74zm-2887.46 2753.54l1860.2 0c-42.41,354.85 -64.95,728.57 -64.95,1115.66 0,387.11 22.62,760.78 65,1115.66l-1860.26 0c-103.58,-354.15 -159.39,-728.48 -159.39,-1115.66 0,-387.18 55.81,-761.5 159.39,-1115.66zm125.11 2593.13l1786.25 0c171.38,1046.21 521.49,1896.8 975.82,2391.67 -1259.4,-303.84 -2287.14,-1208.06 -2762.07,-2391.67zm4628.74 2391.67c454.28,-494.87 804.34,-1345.47 975.71,-2391.67l1786.41 0c-474.91,1183.63 -1502.69,2087.87 -2762.12,2391.67z"/>
 </g>
</svg>
